{"title":"Transformers.Dark.of.the.Moon.2011.TS.x264.Feel-Free","uid":6515746,"size":1789078369,"categoryP":"video","categoryS":"movies","magnet":"?xt=urn:btih:8b7feedd75fab55d8acc794a1b650c55427d7fc1&amp;dn=Transformers.Dark.of.the.Moon.2011.TS.x264.Feel-Free&amp;tr=udp%3A%2F%2Ftracker.openbittorrent.com%3A80&amp;tr=udp%3A%2F%2Fopen.demonii.com%3A1337&amp;tr=udp%3A%2F%2Ftracker.coppersurfer.tk%3A6969&amp;tr=udp%3A%2F%2Fexodus.desync.com%3A6969","seeders":1,"leechers":0,"uploader":".BONE.","files":9,"time":1309808553,"description":"Genre:Action | Adventure | Sci-Fi\nLanguage:English\n &lt;a href=&quot;\nhttp://www.imdb.com/title/tt1399103/&quot; rel=&quot;nofollow&quot; target=&quot;_NEW&quot;&gt;\nhttp://www.imdb.com/title/tt1399103/&lt;/a&gt;\n\nSource:IMAGINE Thanks!\n\nFormat : MPEG-4\nFormat profile : Base Media\nCodec ID : isom\nFile size : 1.66 GiB\nDuration : 2h 25mn\nOverall bit rate : 1 633 Kbps\n\nVideo\nID : 1\nFormat : AVC\nFormat/Info : Advanced Video Codec\nFormat profile : &lt;a class=&quot;__cf_email__&quot; href=&quot;/cdn-cgi/l/email-protection&quot; data-cfemail=&quot;5e163739361e126a706f&quot;&gt;[email&amp;#160;protected]&lt;/a&gt;&lt;script cf-hash='f9e31' type=&quot;text/javascript&quot;&gt;\n/* &lt;![CDATA[ */!function(){try{var t=&quot;currentScript&quot;in document?document.currentScript:function(){for(var t=document.getElementsByTagName(&quot;script&quot;),e=t.length;e--;)if(t[e].getAttribute(&quot;cf-hash&quot;))return t[e]}();if(t&amp;&amp;t.previousSibling){var e,r,n,i,c=t.previousSibling,a=c.getAttribute(&quot;data-cfemail&quot;);if(a){for(e=&quot;&quot;,r=parseInt(a.substr(0,2),16),n=2;a.length-n;n+=2)i=parseInt(a.substr(n,2),16)^r,e+=String.fromCharCode(i);e=document.createTextNode(e),c.parentNode.replaceChild(e,c)}}}catch(u){}}();/* ]]&gt; */&lt;/script&gt;\nFormat settings, CABAC : Yes\nFormat settings, ReFrames : 3 frames\nCodec ID : avc1\nCodec ID/Info : Advanced Video Coding\nDuration : 2h 25mn\nBit rate mode : Variable\nBit rate : 1 400 Kbps\nMaximum bit rate : 4 893 Kbps\nWidth : 720 pixels\nHeight : 288 pixels\nDisplay aspect ratio : 2.500\nFrame rate mode : Constant\nFrame rate : 23.976 fps\nColor space : YUV\nChroma subsampling : 4:2:0\nBit depth : 8 bits\nScan type : Progressive\nBits/(Pixel*Frame) : 0.282\nStream size : 1.43 GiB (86%)\nWriting library : x264\n\nAudio\nID : 2\nFormat : AAC\nFormat/Info : Advanced Audio Codec\nFormat version : Version 4\nFormat profile : LC\nFormat settings, SBR : No\nCodec ID : 40\nDuration : 2h 25mn\nBit rate mode : Variable\nBit rate : 224 Kbps\nMaximum bit rate : 270 Kbps\nChannel(s) : 2 channels\nChannel positions : Front: L R\nSampling rate : 44.1 KHz\nStream size : 234 MiB (14%)\n\n\nPlot:\nThe Autobots learn of a Cybertronian spacecraft hidden on the Moon, and race against the Decepticons to reach it and to learn its secrets\n &lt;a href=&quot;\nhttp://leetleech.org/images/98330714232409602913.png&quot; rel=&quot;nofollow&quot; target=&quot;_NEW&quot;&gt;\nhttp://leetleech.org/images/98330714232409602913.png&lt;/a&gt;\n &lt;a href=&quot;\nhttp://leetleech.org/images/11275162409980858336.png&quot; rel=&quot;nofollow&quot; target=&quot;_NEW&quot;&gt;\nhttp://leetleech.org/images/11275162409980858336.png&lt;/a&gt;\n &lt;a href=&quot;\nhttp://leetleech.org/images/72781757418785799993.png&quot; rel=&quot;nofollow&quot; target=&quot;_NEW&quot;&gt;\nhttp://leetleech.org/images/72781757418785799993.png&lt;/a&gt;\n &lt;a href=&quot;\nhttp://leetleech.org/images/70051717170787995325.png&quot; rel=&quot;nofollow&quot; target=&quot;_NEW&quot;&gt;\nhttp://leetleech.org/images/70051717170787995325.png&lt;/a&gt;\n &lt;a href=&quot;\nhttp://leetleech.org/images/07521271630121283004.png&quot; rel=&quot;nofollow&quot; target=&quot;_NEW&quot;&gt;\nhttp://leetleech.org/images/07521271630121283004.png&lt;/a&gt;\n\n","torrent":{"xt":"urn:btih:8b7feedd75fab55d8acc794a1b650c55427d7fc1","amp;dn":"Transformers.Dark.of.the.Moon.2011.TS.x264.Feel-Free","amp;tr":["udp%3A%2F%2Ftracker.openbittorrent.com%3A80","udp%3A%2F%2Fopen.demonii.com%3A1337","udp%3A%2F%2Ftracker.coppersurfer.tk%3A6969","udp%3A%2F%2Fexodus.desync.com%3A6969"],"infoHash":"8b7feedd75fab55d8acc794a1b650c55427d7fc1","infoHashBuffer":{"type":"Buffer","data":[139,127,238,221,117,250,181,93,138,204,121,74,27,101,12,85,66,125,127,193]},"announce":[],"urlList":[]}}